<?xml version="1.0" encoding="UTF-8"?>
<svg xmlns="http://www.w3.org/2000/svg" height="400" width="400" xmlns:xlink="http://www.w3.org/1999/xlink">
<defs>
<linearGradient id="c">
<stop stop-color="#fdde61" offset="0"/>
<stop stop-color="#cc9021" offset="1"/>
</linearGradient>
<linearGradient id="d">
<stop stop-color="#974f05" offset="0"/>
<stop stop-color="#deb764" offset="1"/>
</linearGradient>
<linearGradient id="b">
<stop stop-color="#fff" stop-opacity="0.6" offset="0"/>
<stop stop-color="#fff" stop-opacity="0" offset="1"/>
</linearGradient>
<linearGradient id="a">
<stop stop-color="#b77617" offset="0"/>
<stop stop-color="#fff" stop-opacity=".4742" offset="1"/>
</linearGradient>
<linearGradient id="e">
<stop stop-color="#96af96" offset="0"/>
<stop stop-color="#96af96" stop-opacity="0" offset="1"/>
</linearGradient>
<linearGradient id="y" y2="255.8" xlink:href="#e" gradientUnits="userSpaceOnUse" x2="93.5" y1="223.8" x1="28.99"/>
<linearGradient id="x" y2="314.3" xlink:href="#e" gradientUnits="userSpaceOnUse" x2="105.5" y1="270.3" x1="62.91"/>
<linearGradient id="w" y2="203.8" xlink:href="#a" gradientUnits="userSpaceOnUse" x2="148" y1="315.5" x1="130.2"/>
<linearGradient id="v" y2="119.2" xlink:href="#a" gradientUnits="userSpaceOnUse" x2="236" y1="290" x1="159.2"/>
<linearGradient id="u" y2="198.8" xlink:href="#a" gradientUnits="userSpaceOnUse" x2="209.5" y1="312.8" x1="194.6"/>
<linearGradient id="t" y2="141.2" xlink:href="#a" gradientUnits="userSpaceOnUse" x2="261" y1="307.8" x1="233.9"/>
<linearGradient id="s" y2="130" xlink:href="#a" gradientUnits="userSpaceOnUse" x2="299" y1="314.5" x1="280.2"/>
<linearGradient id="r" y2="140.8" xlink:href="#a" gradientUnits="userSpaceOnUse" x2="318.5" y1="275.8" x1="297.9"/>
<linearGradient id="q" y2="313.6" xlink:href="#b" gradientUnits="userSpaceOnUse" x2="313.5" y1="313.6" x1="130.7"/>
<linearGradient id="p" y2="226.6" xlink:href="#b" gradientUnits="userSpaceOnUse" x2="196.1" y1="82.8" x1="311.7"/>
<linearGradient id="o" y2="235.2" gradientUnits="userSpaceOnUse" x2="329.5" y1="150.7" x1="170.1">
<stop stop-color="#e3140f" offset="0"/>
<stop stop-color="#fee7e7" offset=".25"/>
<stop stop-color="#e3140f" offset="1"/>
</linearGradient>
<linearGradient id="n" y2="86.18" xlink:href="#d" gradientUnits="userSpaceOnUse" x2="297.9" y1="377" x1="235.5"/>
<linearGradient id="m" y2="81.46" xlink:href="#c" gradientUnits="userSpaceOnUse" x2="262.1" y1="370" x1="262.1"/>
<radialGradient id="f" gradientUnits="userSpaceOnUse" cy="348" cx="220" gradientTransform="matrix(1 0 0 .2985 0 244.1)" r="268">
<stop stop-color="#474747" offset="0"/>
<stop stop-color="#595959" offset=".25"/>
<stop stop-color="#a3a3a3" stop-opacity=".4980" offset=".7188"/>
<stop stop-color="#fff" stop-opacity="0" offset="1"/>
</radialGradient>
<linearGradient id="l" y2="61.5" xlink:href="#d" gradientUnits="userSpaceOnUse" x2="324.5" y1="112.2" x1="324.5"/>
<linearGradient id="k" y2="73.79" xlink:href="#c" gradientUnits="userSpaceOnUse" x2="294.7" y1="108.6" x1="335"/>
<linearGradient id="j" y2="85.68" xlink:href="#b" gradientUnits="userSpaceOnUse" x2="319.1" y1="73.86" x1="292"/>
<linearGradient id="i" y2="55.2" xlink:href="#b" gradientUnits="userSpaceOnUse" x2="336.5" y1="21.08" x1="363.2"/>
<linearGradient id="h" y2="14.32" gradientUnits="userSpaceOnUse" x2="370.2" y1="84.82" x1="314">
<stop stop-color="#4a3302" offset="0"/>
<stop stop-color="#c99414" offset="1"/>
</linearGradient>
<linearGradient id="g" y2="53.66" gradientUnits="userSpaceOnUse" x2="331.3" y1="61.41" x1="340.6">
<stop stop-color="#c5942f" offset="0"/>
<stop stop-color="#80630e" offset="1"/>
</linearGradient>
</defs>
<path d="m488 348a268 80 0 1 1 -536 0 268 80 0 1 1 536 0z" transform="matrix(.6679 0 0 .6393 73.06 123.5)" fill="url(#f)"/>
<path d="m161.5 184.5c-24.6-61.6-108.3-40.1-85 19-31.79-2.8-42.2 17.5-25.5 44-47.92 6.9-41.71 47.5-14.5 65l135 2.5" fill="url(#y)"/>
<path d="m138.5 233c-31.5-11.3-43.12 13.2-43 32.5-20.65-4.9-34.52 9.6-35.5 28-37.14-3.1-48.1 53.9 0 55l112.5-74" fill="url(#x)"/>
<path d="m166.5 371.2s-63.5-10.6-63.5-75.1c0-66.6 93.8-179.1 134.5-203.1 27.1-15.99 47-16.5 76-11.5s39.5 26.5 39.5 43c0 32-37.5 98.7-37.5 129.5 0 57 71 50.5 71 50.5-4 16.5-20.4 22.3-39 24 5.8 5.4 12.5 11 27.5 19-42.1 3.8-44.3-2.9-58-6.5 4.9 7.7 10.6 16.7 18.5 25-22.1 1-41.4-6.6-59.5-17.5 1.3 9.3 1.4 18.7 6.5 28-28-5.3-53.2-15.1-74.5-31 .9 7.9 1.9 15.9 8 29-16.7-4.1-34.3-13-55-37-1.8 8.5 2.1 21.3 5.5 33.7z" fill="url(#n)"/>
<path d="m159 364.7c-13.6-7.1-52-15.1-52-70.1 0-66.6 91.8-173.6 132.5-197.6 27.1-15.99 44-17.5 73-12.5s36 25 36 41.5c0 32-37 97.7-37 128.5 0 57 67.5 54.5 67.5 54.5-10 14-21.4 13.8-40 15.5 5.8 5.4 5 11 20 19-19.1 2.8-34.3-4.4-47.5-8.5 4.9 7.7 5.1 17.2 13 25.5-20.6 1-40.9-12.6-52-22-1.7 11.3-.1 23.7 1.5 31-27-5.3-55.7-20.1-70-34.5-1.6 9.4.4 21.4 4.5 32.5-17.1-4.4-35.3-20.8-50.5-41.5-1.8 6.4-2.4 21.9 1 38.7z" fill="url(#m)"/>
<path d="m148 222c-25.3 43-26.6 71.8-16 93.5-6.1-39.1 5.3-66.1 16-93.5z" fill="url(#w)"/>
<path d="m230 150.5c-36 42.8-82.8 82.7-68 139.5-3.6-48.4 29.8-95.4 68-139.5z" fill="url(#v)"/>
<path d="m212.5 207c-19.7 34.8-30.3 70.7-15.5 109.5-5.3-39.5 2.2-75.3 15.5-109.5z" fill="url(#u)"/>
<path d="m261 160c-24.9 48.6-46.5 96.9-23 141.5-11.4-47.2 2.7-94.3 23-141.5z" fill="url(#t)"/>
<path d="m304 135.5c-24.1 53.2-50.3 105.8-18.5 179-17.4-65.2-6.7-117.8 18.5-179z" fill="url(#s)"/>
<path d="m322.5 147c-26.2 55.3-27.5 92-22 123.5 1.1-41.2 10.4-82.3 22-123.5z" fill="url(#r)"/>
<path d="m151.5 352c-1.6-19.6 1.6-30.9 5.6-32.2 2.9-1 21.1 28.4 43.4 38.2 0 0-3.6-26 .5-28.2 2.8-1.6 21.1 13.9 49 11.2 33.2-60.9 63.5-20.4 63.5-51.5 0-48.5-174.2 1.1-182.4 31.6-3.1 11.7 12.7 26.1 20.4 30.9z" fill="url(#q)"/>
<path stroke-linejoin="round" d="m191.4 135l-27.6 33.2c6.8 33.7 55.6 63.6 161.6 42.8l11.7-30.8c-100.5 14.4-136.4-6-145.7-45.2z" stroke="#991d03" stroke-width="2.5" fill="url(#o)"/>
<path d="m260.5 194.5c-118.6 110-112.8 20.4-69-44.5 72.4-107.4 150-61.3 146.5-30-7 62-20.7 21.8-77.5 74.5z" fill="url(#p)"/>
<path d="m294.5 104.4c47.7 25.3 70.6-18.08 35.4-35.68-47.6-23.72-70.7 17.02-35.4 35.68z" fill="url(#l)"/>
<path d="m297.5 101.5c42.5 22.6 62.7-15 30.4-30.62-41.5-20.02-60.9 14.33-30.4 30.62z" fill="url(#k)"/>
<path d="m297.6 87.33c31.4 12.77 46.7-6.68 22.8-15.49-30.7-11.29-45.4 6.31-22.8 15.49z" fill="url(#j)"/>
<path d="m350 12.5h39l-64 74.5c-14.5 2.64-19.5-3-19.5-13l44.5-61.5z" fill="url(#h)"/>
<path d="m351.6 19.04h26.5l-54.1 62.95c-9.1 2.17-14.1 0-13.4-8.44l41-54.51z" fill="url(#g)"/>
<path d="m352.7 19.22l14.7-.18-36.2 46.15c-9 7.22-15.6 4.1 4-23.29l17.5-22.68z" fill="url(#i)"/>
</svg>